<svg width="30" height="29" viewBox="0 0 30 29" fill="none" xmlns="http://www.w3.org/2000/svg">
<g id="LinkedIn">
<path id="Vector" d="M6.77428 9.53636H0.505615V28.8604H6.77428V9.53636Z" fill="black"/>
<path id="Vector_2" d="M23.7313 9.11745C23.5002 9.08953 23.2547 9.07557 23.0091 9.0616C19.4993 8.92198 17.5204 10.9326 16.8271 11.7982C16.6394 12.0356 16.5527 12.1752 16.5527 12.1752V9.59218H10.5585V28.9162H16.5527H16.8271C16.8271 26.9475 16.8271 24.9928 16.8271 23.0241C16.8271 21.9629 16.8271 20.9018 16.8271 19.8406C16.8271 18.5281 16.726 17.1319 17.4049 15.9311C17.9827 14.9258 19.0226 14.4232 20.1926 14.4232C23.6591 14.4232 23.7313 17.453 23.7313 17.7323C23.7313 17.7463 23.7313 17.7602 23.7313 17.7602V29H30V16.3919C30 12.0775 27.7323 9.53633 23.7313 9.11745Z" fill="black"/>
<path id="Vector_3" d="M3.63986 7.03708C5.6501 7.03708 7.27974 5.46177 7.27974 3.51854C7.27974 1.5753 5.6501 0 3.63986 0C1.62962 0 0 1.5753 0 3.51854C0 5.46177 1.62962 7.03708 3.63986 7.03708Z" fill="black"/>
</g>
</svg>
