<svg width="33" height="33" viewBox="0 0 33 33" fill="none" xmlns="http://www.w3.org/2000/svg">
<g id="nights_stay">
<mask id="mask0_1_18" style="mask-type:alpha" maskUnits="userSpaceOnUse" x="0" y="0" width="33" height="33">
<rect id="Bounding box" width="33" height="33" fill="#D9D9D9"/>
</mask>
<g mask="url(#mask0_1_18)">
<path id="nights_stay_2" d="M18.0125 31.625H14.4375L15.125 31.1953C15.5833 30.9089 16.0818 30.588 16.6203 30.2328C17.1589 29.8776 17.6573 29.5568 18.1156 29.2703L18.8031 28.8406C20.6594 28.7031 22.3724 28.1417 23.9422 27.1562C25.512 26.1708 26.7552 24.8531 27.6719 23.2031C25.701 23.0198 23.8333 22.5214 22.0688 21.7078C20.3042 20.8943 18.7229 19.7885 17.325 18.3906C15.9271 16.9927 14.8156 15.4115 13.9906 13.6469C13.1656 11.8823 12.6729 10.0146 12.5125 8.04375C10.7479 9.02917 9.36719 10.387 8.37031 12.1172C7.37344 13.8474 6.875 15.7208 6.875 17.7375V18.15L6.4625 18.3391C6.1875 18.4651 5.88385 18.5969 5.55156 18.7344C5.21927 18.8719 4.91563 19.0036 4.64062 19.1297L4.22813 19.3188C4.18229 19.0667 4.15365 18.8031 4.14219 18.5281C4.13073 18.2531 4.125 17.9896 4.125 17.7375C4.125 14.3917 5.19063 11.4411 7.32188 8.88594C9.45313 6.33073 12.1687 4.74375 15.4688 4.125C15.0562 6.39375 15.1823 8.61094 15.8469 10.7766C16.5115 12.9422 17.6573 14.8385 19.2844 16.4656C20.9115 18.0927 22.8078 19.2385 24.9734 19.9031C27.1391 20.5677 29.3563 20.6938 31.625 20.2812C31.0292 23.5813 29.4479 26.2969 26.8813 28.4281C24.3146 30.5594 21.3583 31.625 18.0125 31.625ZM8.25 28.875H14.4375C15.0104 28.875 15.4974 28.6745 15.8984 28.2734C16.2995 27.8724 16.5 27.3854 16.5 26.8125C16.5 26.2396 16.3052 25.7526 15.9156 25.3516C15.526 24.9505 15.0563 24.75 14.5063 24.75H12.7188L12.0312 23.1C11.7104 22.3438 11.2063 21.7422 10.5188 21.2953C9.83125 20.8484 9.075 20.625 8.25 20.625C7.10417 20.625 6.13021 21.0203 5.32812 21.8109C4.52604 22.6016 4.125 23.5812 4.125 24.75C4.125 25.8958 4.52604 26.8698 5.32812 27.6719C6.13021 28.474 7.10417 28.875 8.25 28.875ZM8.25 31.625C6.34792 31.625 4.72656 30.9547 3.38594 29.6141C2.04531 28.2734 1.375 26.6521 1.375 24.75C1.375 22.8479 2.04531 21.2266 3.38594 19.8859C4.72656 18.5453 6.34792 17.875 8.25 17.875C9.625 17.875 10.8797 18.2474 12.0141 18.9922C13.1484 19.737 13.9906 20.7396 14.5406 22C15.8469 22.0458 16.9583 22.5328 17.875 23.4609C18.7917 24.3891 19.25 25.5063 19.25 26.8125C19.25 28.1417 18.7802 29.276 17.8406 30.2156C16.901 31.1552 15.7667 31.625 14.4375 31.625H8.25Z" fill="black"/>
</g>
</g>
</svg>
