<svg width="35" height="29" viewBox="0 0 35 29" fill="none" xmlns="http://www.w3.org/2000/svg">
<g id="twitter">
<path id="Twitter" d="M0.5 24.8435C4.15983 25.0448 7.36021 24.2086 10.4814 21.9942C7.32852 21.4676 5.14213 20.0585 3.95388 17.1472C4.8728 17.0234 5.68081 17.2556 6.63142 16.884C3.52611 15.5522 1.51398 13.5546 1.43477 10.1014C2.41706 10.1788 3.16171 10.8137 4.33412 10.7208C1.4823 7.99539 0.610904 5.0222 2.40121 1.41411C5.37978 4.75895 8.86534 7.0353 13.1272 8.10379C13.3649 8.16573 13.5867 8.22767 13.8243 8.27413C14.9175 8.52189 16.2167 9.04839 16.8821 8.97097C18.0228 8.8316 16.8821 7.54631 17.1673 5.87389C18.0704 0.670815 23.9324 -1.69844 28.2735 1.35217C29.541 2.25032 30.5391 2.23484 31.7908 1.69285C32.4404 1.41411 33.1058 1.13538 33.8821 0.810183C33.7078 2.29678 32.5354 3.1175 31.6007 4.21696C32.6622 4.44924 33.5177 4.15502 34.5 3.84531C34.1673 4.9138 33.3434 5.51773 32.5988 6.10617C31.8225 6.7101 31.5214 7.345 31.4897 8.33607C31.0144 23.3414 13.5708 34.9399 1.64074 25.7106C0.484168 24.8125 1.60904 25.7106 0.5 24.8435Z" fill="black"/>
</g>
</svg>
